REM DIRINDEX 1\2\3,1\2\4,1\2\5,1\2\6
REM DIRNAME folder01,folder02,folder03,folder04,folder05,folder06
TITLE ""
FILE "035 035.mp3" MP3
  TRACK 01 AUDIO
    TITLE "0:"
    INDEX 01 00:00:00
  TRACK 02 AUDIO
    TITLE "3:cjc157_1328"
    INDEX 01 00:00:11
  TRACK 03 AUDIO
    TITLE "0:"
    INDEX 01 00:01:58
  TRACK 04 AUDIO
    TITLE "4:cjc157_1329"
    INDEX 01 00:02:30
  TRACK 05 AUDIO
    TITLE "0:"
    INDEX 01 00:03:51
  TRACK 06 AUDIO
    TITLE "5:cjc157_1330"
    INDEX 01 00:04:23
  TRACK 07 AUDIO
    TITLE "0:"
    INDEX 01 00:06:30
  TRACK 08 AUDIO
    TITLE "3:cjc157_1331"
    INDEX 01 00:06:71
  TRACK 09 AUDIO
    TITLE "0:"
    INDEX 01 00:08:19
  TRACK 10 AUDIO
    TITLE "4:cjc157_1332"
    INDEX 01 00:08:66
  TRACK 11 AUDIO
    TITLE "0:"
    INDEX 01 00:10:18
  TRACK 12 AUDIO
    TITLE "5:cjc157_1333"
    INDEX 01 00:10:63
  TRACK 13 AUDIO
    TITLE "0:"
    INDEX 01 00:13:67
  TRACK 14 AUDIO
    TITLE "5:cjc157_1334"
    INDEX 01 00:14:51
  TRACK 15 AUDIO
    TITLE "0:"
    INDEX 01 00:16:51
  TRACK 16 AUDIO
    TITLE "5:cjc157_1335"
    INDEX 01 00:17:20
  TRACK 17 AUDIO
    TITLE "0:"
    INDEX 01 00:18:44
  TRACK 18 AUDIO
    TITLE "3:cjc157_1336"
    INDEX 01 00:19:15
  TRACK 19 AUDIO
    TITLE "0:"
    INDEX 01 00:20:45
  TRACK 20 AUDIO
    TITLE "4:cjc157_1337"
    INDEX 01 00:21:15
  TRACK 21 AUDIO
    TITLE "0:"
    INDEX 01 00:22:32
  TRACK 22 AUDIO
    TITLE "5:cjc157_1338"
    INDEX 01 00:23:06
  TRACK 23 AUDIO
    TITLE "0:"
    INDEX 01 00:25:15
  TRACK 24 AUDIO
    TITLE "5:cjc157_1339"
    INDEX 01 00:25:60
  TRACK 25 AUDIO
    TITLE "0:"
    INDEX 01 00:27:57
  TRACK 26 AUDIO
    TITLE "3:cjc157_1340"
    INDEX 01 00:28:27
  TRACK 27 AUDIO
    TITLE "0:"
    INDEX 01 00:29:70
  TRACK 28 AUDIO
    TITLE "4:cjc157_1341"
    INDEX 01 00:30:40
  TRACK 29 AUDIO
    TITLE "0:"
    INDEX 01 00:31:55
  TRACK 30 AUDIO
    TITLE "5:cjc157_1342"
    INDEX 01 00:32:27
  TRACK 31 AUDIO
    TITLE "0:"
    INDEX 01 00:34:42
  TRACK 32 AUDIO
    TITLE "5:cjc157_1343"
    INDEX 01 00:35:14
  TRACK 33 AUDIO
    TITLE "0:"
    INDEX 01 00:37:20
  TRACK 34 AUDIO
    TITLE "5:cjc157_1344"
    INDEX 01 00:37:69
  TRACK 35 AUDIO
    TITLE "0:"
    INDEX 01 00:42:12
  TRACK 36 AUDIO
    TITLE "3:cjc157_1345"
    INDEX 01 00:42:57
  TRACK 37 AUDIO
    TITLE "0:"
    INDEX 01 00:44:16
  TRACK 38 AUDIO
    TITLE "4:cjc157_1346"
    INDEX 01 00:44:65
  TRACK 39 AUDIO
    TITLE "0:"
    INDEX 01 00:46:06
  TRACK 40 AUDIO
    TITLE "5:cjc157_1347"
    INDEX 01 00:46:51
  TRACK 41 AUDIO
    TITLE "0:"
    INDEX 01 00:49:72
  TRACK 42 AUDIO
    TITLE "5:cjc157_1348"
    INDEX 01 00:50:42
  TRACK 43 AUDIO
    TITLE "0:"
    INDEX 01 00:52:45
  TRACK 44 AUDIO
    TITLE "3:cjc157_1349"
    INDEX 01 00:53:15
  TRACK 45 AUDIO
    TITLE "0:"
    INDEX 01 00:54:52
  TRACK 46 AUDIO
    TITLE "4:cjc157_1350"
    INDEX 01 00:55:22
  TRACK 47 AUDIO
    TITLE "0:"
    INDEX 01 00:56:53
  TRACK 48 AUDIO
    TITLE "5:cjc157_1351"
    INDEX 01 00:57:23
  TRACK 49 AUDIO
    TITLE "0:"
    INDEX 01 01:00:02
  TRACK 50 AUDIO
    TITLE "5:cjc157_1352"
    INDEX 01 01:00:51
  TRACK 51 AUDIO
    TITLE "0:"
    INDEX 01 01:02:54
  TRACK 52 AUDIO
    TITLE "3:cjc157_1353"
    INDEX 01 01:03:26
  TRACK 53 AUDIO
    TITLE "0:"
    INDEX 01 01:04:70
  TRACK 54 AUDIO
    TITLE "4:cjc157_1354"
    INDEX 01 01:05:42
  TRACK 55 AUDIO
    TITLE "0:"
    INDEX 01 01:06:49
  TRACK 56 AUDIO
    TITLE "5:cjc157_1355"
    INDEX 01 01:07:23
  TRACK 57 AUDIO
    TITLE "0:"
    INDEX 01 01:11:62
  TRACK 58 AUDIO
    TITLE "3:cjc157_1356"
    INDEX 01 01:12:32
  TRACK 59 AUDIO
    TITLE "0:"
    INDEX 01 01:13:71
  TRACK 60 AUDIO
    TITLE "4:cjc157_1357"
    INDEX 01 01:14:37
  TRACK 61 AUDIO
    TITLE "0:"
    INDEX 01 01:15:56
  TRACK 62 AUDIO
    TITLE "5:cjc157_1358"
    INDEX 01 01:16:22
  TRACK 63 AUDIO
    TITLE "0:"
    INDEX 01 01:18:21
  TRACK 64 AUDIO
    TITLE "5:cjc157_1359"
    INDEX 01 01:18:62
  TRACK 65 AUDIO
    TITLE "0:"
    INDEX 01 01:21:27
  TRACK 66 AUDIO
    TITLE "3:cjc157_1360"
    INDEX 01 01:21:72
  TRACK 67 AUDIO
    TITLE "0:"
    INDEX 01 01:23:32
  TRACK 68 AUDIO
    TITLE "4:cjc157_1361"
    INDEX 01 01:24:02
  TRACK 69 AUDIO
    TITLE "0:"
    INDEX 01 01:25:25
  TRACK 70 AUDIO
    TITLE "5:cjc157_1362"
    INDEX 01 01:25:68
  TRACK 71 AUDIO
    TITLE "0:"
    INDEX 01 01:29:23
  TRACK 72 AUDIO
    TITLE "3:cjc157_1363"
    INDEX 01 01:29:70
  TRACK 73 AUDIO
    TITLE "0:"
    INDEX 01 01:31:51
  TRACK 74 AUDIO
    TITLE "4:cjc157_1364"
    INDEX 01 01:32:25
  TRACK 75 AUDIO
    TITLE "0:"
    INDEX 01 01:33:46
  TRACK 76 AUDIO
    TITLE "5:cjc157_1365"
    INDEX 01 01:34:18
  TRACK 77 AUDIO
    TITLE "0:"
    INDEX 01 01:36:11
